# Blender v2.76 (sub 0) OBJ File: 'casa_da_musica_imported.blend'
# www.blender.org
mtllib casa_da_musica_experimentar_2.mtl
o casa_Plane
v 0.903285 0.214583 0.357365
v 0.902918 0.272661 0.357082
v 0.783528 0.624264 0.264952
v -0.413290 0.300427 -0.667616
v 0.978190 0.205503 0.260525
v 0.902911 0.580838 0.357077
v 0.028351 0.866536 -0.135544
v 0.477720 0.623715 0.657340
v 0.977947 0.580968 0.260822
v -0.414050 0.623633 -0.668208
v -0.412521 0.276847 -0.668484
v -0.426621 0.300359 -0.650583
v 0.561934 0.205532 0.799335
v 0.586639 0.382138 -0.498128
v -0.402536 0.806212 -0.669040
v -0.300714 0.891318 0.126233
v 0.558176 0.580240 0.799300
v 0.543133 0.588369 0.772757
v 0.445792 0.623416 0.697624
v -0.620453 0.623577 -0.404497
v 0.567716 0.215024 0.791726
v 0.844522 -0.139325 0.000859
v -0.757929 0.852822 -0.229959
v -0.327635 0.891954 0.129974
v -0.822871 0.696626 0.736185
v 0.565446 0.580253 0.789975
v 0.565446 0.573754 0.789975
v -0.752839 0.300667 -0.236325
v -0.752867 0.623632 -0.236346
v -0.412909 0.806130 -0.670548
v -0.758220 0.274565 -0.229487
v 0.152339 -0.471455 0.473314
v 0.586639 0.216837 -0.498128
v 0.166427 -0.208343 0.781418
v -0.766987 0.854467 -0.211785
v -0.240125 -0.386382 -0.639265
v -0.540099 0.148483 -0.461826
v -0.435249 0.148202 -0.591629
v -0.445049 0.202064 -0.599325
v -0.701388 0.202064 -0.274436
v 0.505520 -0.472816 0.014946
v -0.821170 0.435761 0.737587
v -1.036257 0.695327 0.450811
v -0.615311 -0.473102 -0.128313
v -0.728973 0.202064 -0.239285
v -0.719067 0.148202 -0.231501
v -0.259719 -0.472581 -0.582452
v -0.883188 -0.106105 0.076831
v -0.823776 0.442322 0.734116
v -0.824523 0.693779 0.733960
v -1.037163 0.327296 0.447634
v -0.824347 0.693779 0.734196
v -0.970423 0.442322 0.537501
v -1.034823 0.693779 0.452720
v -0.774747 0.693779 0.727169
v -0.774747 0.442322 0.727169
v -1.034467 0.442322 0.451853
v -1.005324 0.442322 0.406551
v -1.005324 0.693779 0.406551
v -0.293337 0.693748 0.365084
v -0.293337 0.442322 0.365084
v -0.534485 0.442322 0.044466
v -0.534485 0.693748 0.044466
v -0.708803 0.148202 -0.223441
v -0.698334 0.094339 -0.215265
v -0.416112 0.094339 -0.576643
v -0.426580 0.148202 -0.584819
v -0.572886 0.148202 -0.117294
v -0.572972 0.094339 -0.117362
v -0.290750 0.094339 -0.478740
v -0.290663 0.148202 -0.478673
v -0.572988 0.202064 -0.117140
v -0.437048 0.202064 -0.592994
v -0.290765 0.202064 -0.478518
v -0.719271 0.202064 -0.231616
v 0.560055 0.392886 0.799318
v 0.364180 -0.001405 0.790377
v -0.132348 0.638433 0.767743
v -0.822021 0.566194 0.736886
v -0.327371 0.113709 0.759502
vt 0.617965 0.503720
vt 0.615338 0.502872
vt 0.726662 0.474847
vt 0.317539 0.894981
vt 0.026042 0.884763
vt 0.289591 0.824336
vt 0.245053 0.266551
vt 0.228507 0.266092
vt 0.270556 0.260506
vt 0.023339 0.976501
vt 0.313842 0.990448
vt 0.723598 0.463348
vt 0.739739 0.439723
vt 0.774490 0.508360
vt 0.836100 0.242897
vt 0.889901 0.030256
vt 0.969055 0.143988
vt 0.275809 0.605078
vt 0.273635 0.602747
vt 0.268674 0.589843
vt 0.637035 0.298785
vt 0.717473 0.350741
vt 0.570551 0.465863
vt 0.842705 0.300315
vt 0.869957 0.319890
vt 0.784279 0.044440
vt 0.803211 0.247931
vt 0.159945 0.466467
vt 0.212235 0.444588
vt 0.233953 0.498464
vt 0.464060 0.749719
vt 0.347650 0.634654
vt 0.485553 0.606558
vt 0.274697 0.605511
vt 0.433795 0.505452
vt 0.235065 0.495983
vt 0.214239 0.444226
vt 0.286895 0.434734
vt 0.649670 0.571538
vt 0.651229 0.569256
vt 0.651831 0.570444
vt 0.462689 0.012494
vt 0.460597 0.047540
vt 0.459449 0.047929
vt 0.657648 0.099430
vt 0.357230 0.155845
vt 0.376684 0.063854
vt 0.390630 0.081852
vt 0.537174 0.356219
vt 0.445161 0.189056
vt 0.407458 0.260969
vt 0.429000 0.439635
vt 0.281550 0.301571
vt 0.262870 0.407094
vt 0.222523 0.325013
vt 0.320453 0.456678
vt 0.308961 0.462653
vt 0.329231 0.448102
vt 0.307958 0.421564
vt 0.288603 0.434260
vt 0.554425 0.936455
vt 0.500893 0.952418
vt 0.497737 0.941746
vt 0.608293 0.932148
vt 0.549933 0.926621
vt 0.633765 0.918970
vt 0.752502 0.950214
vt 0.683249 0.922895
vt 0.770144 0.943359
vt 0.476221 0.802329
vt 0.537390 0.794409
vt 0.631744 0.930017
vt 0.692013 0.792115
vt 0.788165 0.801916
vt 0.633315 0.790417
vt 0.534888 0.734292
vt 0.951596 0.932706
vt 0.951596 0.825524
vt 0.964563 0.825524
vt 0.901823 0.932711
vt 0.914414 0.932706
vt 0.914518 0.969885
vt 0.971903 0.041742
vt 0.971632 0.092874
vt 0.969344 0.092874
vt 0.914401 0.788338
vt 0.914414 0.825524
vt 0.901828 0.825539
vt 0.901939 0.973025
vt 0.889358 0.976166
vt 0.889231 0.932748
vt 0.338875 0.041843
vt 0.323917 0.045532
vt 0.323917 0.041907
vt 0.901800 0.785239
vt 0.889241 0.825565
vt 0.845811 0.932701
vt 0.845820 0.825519
vt 0.318865 0.140340
vt 0.320283 0.038409
vt 0.322796 0.038447
vt 0.288151 0.728810
vt 0.313310 0.657080
vt 0.313394 0.667189
vt 0.277875 0.298543
vt 0.255411 0.296435
vt 0.025131 0.828555
vt 0.024728 0.791304
vt 0.289523 0.815390
vt 0.199554 0.522775
vt 0.236249 0.633099
vt 0.211792 0.628863
vt 0.340023 0.041391
vt 0.339332 0.038409
vt 0.354737 0.038631
vt 0.632504 0.537205
vt 0.311090 0.830092
vt 0.316017 0.831426
vt 0.316035 0.832557
vt 0.246139 0.296006
vt 0.269916 0.262547
vt 0.267930 0.261041
vt 0.222133 0.322500
vt 0.023174 0.981574
vt 0.752179 0.519655
vt 0.969055 0.358932
vt 0.263896 0.591739
vt 0.525763 0.428855
vt 0.801621 0.484210
vt 0.889565 0.028173
vt 0.160088 0.465429
vt 0.623455 0.578462
vt 0.469575 0.749675
vt 0.619397 0.540667
vt 0.344739 0.608351
vt 0.341827 0.582049
vt 0.308670 0.462941
vt 0.395358 0.069693
vt 0.542018 0.114475
vt 0.436320 0.055965
vt 0.636869 0.103380
vt 0.541650 0.134558
vt 0.387217 0.073430
vt 0.332237 0.450414
vt 0.307440 0.395950
vt 0.348333 0.318160
vt 0.309590 0.420603
vt 0.308606 0.462467
vt 0.762318 0.952418
vt 0.683587 0.933665
vt 0.630813 0.730299
vt 0.964564 0.932706
vt 0.969572 0.012494
vt 0.971504 0.012494
vt 0.338875 0.038409
vt 0.889206 0.782144
vt 0.323459 0.151466
vt 0.320410 0.151466
vt 0.314270 0.720823
vt 0.023926 0.733020
vt 0.023174 0.676768
vt 0.223165 0.624434
vt 0.355376 0.041391
vn 0.791300 0.008000 0.611300
vn 0.614400 0.001600 -0.789000
vn -0.787500 -0.003000 -0.616400
vn 0.041100 0.998700 0.030700
vn 0.788700 0.000000 0.614800
vn 0.417600 0.801600 -0.427900
vn 0.211400 0.961700 0.174700
vn 0.623000 -0.612800 0.486100
vn 0.888600 0.000000 -0.458600
vn 0.168100 0.000000 -0.985800
vn -0.000900 0.994300 -0.106300
vn 0.062600 0.933900 0.352100
vn 0.217600 0.960900 0.171000
vn -0.044500 0.000800 0.999000
vn -0.200200 0.968000 0.151200
vn -0.764900 -0.225400 -0.603500
vn 0.513800 -0.550200 -0.658300
vn -0.768500 -0.228600 -0.597600
vn -0.000100 -1.000000 0.002900
vn -0.459900 -0.664900 0.588600
vn -0.926200 -0.002500 -0.377000
vn -0.801600 -0.002000 0.597900
vn -0.800900 -0.003200 0.598900
vn -0.140300 -0.000000 -0.990100
vn 0.000000 1.000000 0.000000
vn 0.000000 -1.000000 0.000000
vn -0.601100 0.000000 -0.799200
vn 0.841000 0.000000 0.541000
vn -0.799200 0.000000 0.601100
vn 0.609600 0.000000 0.792700
vn 0.765200 0.239400 0.597600
vn 0.615500 -0.000000 -0.788100
vn -0.000600 1.000000 0.000800
vn -0.615500 0.000000 0.788100
vn -0.788100 0.002000 -0.615500
vn 0.616300 0.000200 -0.787500
vn 0.617600 0.000700 -0.786500
vn -0.615500 -0.003400 0.788100
vn -0.788100 0.000300 -0.615500
vn -0.610900 -0.000000 0.791700
vn -0.785600 -0.000100 -0.618700
vn -0.000100 -1.000000 0.000200
vn 0.217600 0.960900 0.170900
vn -0.617700 -0.000700 0.786400
vn 0.610900 -0.000000 -0.791700
vn 0.614600 0.000000 -0.788800
vn 0.611000 0.000000 -0.791600
vn -0.787500 -0.003000 -0.616300
vn 0.038500 0.998700 0.034200
vn 0.040500 0.998700 0.031200
vn 0.419000 0.801800 -0.426100
vn 0.617700 -0.611700 0.494100
vn 0.627000 -0.609700 0.484900
vn 0.625700 -0.609300 0.487100
vn 0.623200 -0.616300 0.481500
vn 0.888700 0.000900 -0.458500
vn 0.888600 0.000900 -0.458600
vn 0.168100 0.000300 -0.985800
vn 0.143900 -0.003800 -0.989600
vn 0.168500 -0.004200 -0.985700
vn 0.007200 0.993200 -0.116600
vn -0.008900 0.994400 -0.105300
vn 0.006700 0.994900 -0.100200
vn -0.010700 0.995400 -0.095400
vn 0.062600 0.934000 0.351700
vn 0.070600 0.934200 0.349700
vn -0.045700 -0.000400 0.999000
vn -0.045200 0.005100 0.999000
vn -0.044700 -0.000500 0.999000
vn -0.044900 -0.000400 0.999000
vn -0.045600 -0.000000 0.999000
vn -0.043900 0.000600 0.999000
vn -0.202200 0.968300 0.146800
vn -0.758700 -0.222400 -0.612300
vn 0.513900 -0.550200 -0.658200
vn 0.513600 -0.550500 -0.658100
vn -0.768800 -0.227600 -0.597600
vn -0.767600 -0.221800 -0.601300
vn -0.769200 -0.227600 -0.597100
vn -0.766000 -0.227800 -0.601100
vn -0.765400 -0.229900 -0.601100
vn 0.000400 -1.000000 -0.000900
vn -0.459100 -0.663800 0.590400
vn -0.460000 -0.664800 0.588600
vn -0.459700 -0.664800 0.588800
vn -0.458800 -0.666100 0.588000
vn -0.895000 0.000100 -0.446000
vn -0.924700 -0.002800 -0.380700
vn -0.924400 0.005600 -0.381300
vn -0.801700 -0.001800 0.597700
vn -0.800800 -0.003200 0.598900
vn -0.800900 -0.003200 0.598800
vn 0.000000 -1.000000 0.000400
vn 0.842700 -0.000700 0.538400
vn 0.016100 0.999800 0.012600
vn 0.001000 1.000000 -0.001300
vn 0.615500 0.003400 -0.788100
vn 0.620100 0.000700 -0.784500
vn -0.616300 -0.000200 0.787500
vn -0.614600 -0.000000 0.788800
vn -0.614400 -0.001600 0.789000
vn 0.000800 -1.000000 -0.000700
vn 0.003500 -1.000000 -0.004700
vn 0.000400 -1.000000 0.000100
vn -0.620500 -0.000800 0.784200
usemtl casa
s off
f 21/1/1 13/2/1 1/3/1
f 21/4/2 28/5/2 19/6/2
f 10/7/3 30/8/3 11/9/3
f 12/10/4 21/4/4 1/11/4
f 2/12/5 5/13/5 9/14/5
f 14/15/6 15/16/6 7/17/6
f 17/18/7 18/19/7 19/20/7
f 41/21/8 22/22/8 77/23/8
f 33/24/9 14/25/9 5/13/9
f 11/26/10 14/15/10 33/27/10
f 15/28/11 23/29/11 16/30/11
f 24/31/12 25/32/12 78/33/12
f 18/19/13 17/18/13 26/34/13
f 80/35/14 77/23/14 78/33/14
f 24/36/15 35/37/15 43/38/15
f 17/39/5 27/40/5 26/41/5
f 11/42/16 38/43/16 39/44/16
f 41/21/17 36/45/17 33/27/17
f 48/46/18 31/47/18 46/48/18
f 41/21/19 32/49/19 44/50/19
f 44/51/20 32/49/20 80/52/20
f 31/53/21 43/54/21 35/55/21
f 79/56/22 52/57/22 49/58/22
f 43/38/23 57/59/23 54/60/23
f 49/61/24 52/62/24 55/63/24
f 53/64/25 56/65/25 58/66/25
f 50/67/26 59/68/26 55/69/26
f 60/70/27 61/71/27 56/65/27
f 57/72/28 58/66/28 59/68/28
f 58/66/25 56/65/25 61/71/25
f 59/68/26 63/73/26 60/74/26
f 62/75/29 61/71/29 60/76/29
f 58/66/30 62/75/30 63/73/30
f 65/77/31 66/78/31 67/79/31
f 68/80/32 69/81/32 65/82/32
f 37/83/33 46/84/33 64/85/33
f 66/86/34 70/87/34 71/88/34
f 65/77/25 69/81/25 70/87/25
f 70/87/35 69/81/35 68/80/35
f 64/89/36 75/90/36 72/91/36
f 75/92/37 64/93/37 46/94/37
f 67/95/38 71/88/38 74/96/38
f 74/96/39 71/88/39 68/80/39
f 75/97/26 73/98/26 74/96/26
f 40/99/26 39/100/26 73/101/26
f 3/102/40 1/103/40 2/104/40
f 28/105/41 31/53/41 29/106/41
f 29/107/42 20/108/42 8/109/42
f 7/110/43 3/111/43 9/112/43
f 38/113/44 67/114/44 73/115/44
f 21/1/1 27/40/1 76/116/1
f 5/13/1 2/12/1 1/3/1
f 27/40/1 17/39/1 76/116/1
f 5/13/1 1/3/1 13/2/1
f 21/1/1 76/116/1 13/2/1
f 18/117/45 26/118/45 27/119/45
f 27/119/45 21/4/45 18/117/45
f 28/5/46 29/107/46 19/6/46
f 19/6/47 18/117/47 21/4/47
f 10/7/48 20/120/48 30/8/48
f 11/9/48 12/121/48 4/122/48
f 20/120/48 23/123/48 30/8/48
f 11/9/48 4/122/48 10/7/48
f 1/11/49 4/124/49 12/10/49
f 12/10/50 28/5/50 21/4/50
f 6/125/5 2/12/5 9/14/5
f 9/126/51 14/15/51 7/17/51
f 8/127/7 7/110/7 16/30/7
f 16/30/7 17/18/7 19/20/7
f 19/20/7 8/127/7 16/30/7
f 77/23/52 34/128/52 32/49/52
f 32/49/53 41/21/53 77/23/53
f 22/22/54 5/13/54 77/23/54
f 13/2/55 77/23/55 5/13/55
f 9/129/56 5/13/56 14/25/56
f 22/22/57 33/24/57 5/13/57
f 33/27/58 36/45/58 11/26/58
f 11/26/59 30/130/59 15/16/59
f 15/16/60 14/15/60 11/26/60
f 24/36/61 16/30/61 23/29/61
f 7/110/62 15/28/62 16/30/62
f 30/131/63 23/29/63 15/28/63
f 35/37/64 24/36/64 23/29/64
f 78/33/65 17/132/65 16/133/65
f 16/133/66 24/31/66 78/33/66
f 76/134/67 17/132/67 78/33/67
f 78/33/68 25/32/68 79/135/68
f 79/135/68 42/136/68 78/33/68
f 80/35/69 34/128/69 77/23/69
f 77/23/70 13/2/70 76/134/70
f 76/134/71 78/33/71 77/23/71
f 42/136/72 80/35/72 78/33/72
f 25/137/73 24/36/73 43/38/73
f 40/138/16 31/47/16 39/44/16
f 36/139/74 37/140/74 38/43/74
f 39/44/16 31/47/16 11/42/16
f 11/42/16 36/139/16 38/43/16
f 33/27/75 22/22/75 41/21/75
f 41/21/76 47/141/76 36/45/76
f 46/48/77 37/140/77 44/50/77
f 36/139/78 47/142/78 44/50/78
f 44/50/79 48/46/79 46/48/79
f 31/47/80 40/138/80 45/143/80
f 37/140/81 36/139/81 44/50/81
f 31/47/80 45/143/80 46/48/80
f 47/142/82 41/21/82 44/50/82
f 42/144/83 51/145/83 80/52/83
f 48/146/84 44/51/84 80/52/84
f 32/49/85 34/128/85 80/52/85
f 80/52/86 51/145/86 48/146/86
f 35/55/87 23/123/87 31/53/87
f 31/53/88 48/146/88 51/145/88
f 51/145/89 43/54/89 31/53/89
f 42/144/22 79/56/22 49/58/22
f 53/147/22 51/145/22 42/144/22
f 25/137/90 50/148/90 52/57/90
f 49/58/22 53/147/22 42/144/22
f 25/137/22 52/57/22 79/56/22
f 50/148/91 25/137/91 54/60/91
f 51/145/92 53/147/92 57/59/92
f 54/60/23 25/137/23 43/38/23
f 43/38/91 51/145/91 57/59/91
f 56/65/24 49/61/24 55/63/24
f 58/66/25 57/72/25 53/64/25
f 53/64/25 49/61/25 56/65/25
f 55/69/93 52/149/93 50/67/93
f 50/67/26 54/150/26 59/68/26
f 55/63/27 60/70/27 56/65/27
f 54/150/94 57/72/94 59/68/94
f 62/75/25 58/66/25 61/71/25
f 55/69/26 59/68/26 60/74/26
f 63/151/29 62/75/29 60/76/29
f 59/68/30 58/66/30 63/73/30
f 64/152/31 65/77/31 67/79/31
f 64/89/32 68/80/32 65/82/32
f 64/85/95 67/153/95 37/83/95
f 38/154/96 37/83/96 67/153/96
f 67/95/34 66/86/34 71/88/34
f 66/78/25 65/77/25 70/87/25
f 71/88/35 70/87/35 68/80/35
f 68/80/97 64/89/97 72/91/97
f 45/155/98 75/92/98 46/94/98
f 73/156/99 67/95/99 74/96/99
f 72/91/39 74/96/39 68/80/39
f 72/91/26 75/97/26 74/96/26
f 73/101/26 75/157/26 40/99/26
f 45/158/26 40/99/26 75/157/26
f 2/104/40 6/159/40 3/102/40
f 3/102/100 10/160/100 4/161/100
f 4/161/101 1/103/101 3/102/101
f 28/105/41 12/121/41 31/53/41
f 23/123/41 20/120/41 29/106/41
f 12/121/41 11/9/41 31/53/41
f 23/123/41 29/106/41 31/53/41
f 3/102/102 8/109/102 20/108/102
f 19/6/103 29/107/103 8/109/103
f 20/108/104 10/160/104 3/102/104
f 7/110/13 8/127/13 3/111/13
f 3/111/43 6/162/43 9/112/43
f 39/163/105 38/113/105 73/115/105
