# Blender v2.76 (sub 0) OBJ File: 'casa_da_musica_imported.blend'
# www.blender.org
mtllib casa_da_musica_e_salas.mtl
o casa_Plane
v 0.295510 0.197626 0.650252
v 0.295326 0.226664 0.650110
v 0.235642 0.402466 0.604046
v -0.362662 0.240547 0.137761
v 0.332956 0.193085 0.601832
v 0.295323 0.380753 0.650108
v -0.141880 0.523602 0.403798
v 0.082765 0.402191 0.800240
v 0.332834 0.380818 0.601980
v -0.363043 0.402150 0.137466
v -0.362278 0.228758 0.137328
v -0.369327 0.240513 0.146278
v 0.124864 0.193100 0.871237
v 0.137214 0.281403 0.222506
v -0.357286 0.493440 0.137050
v -0.306385 0.535993 0.534686
v 0.122985 0.380454 0.871219
v 0.115465 0.384518 0.857948
v 0.066803 0.402042 0.820381
v -0.466226 0.402122 0.269321
v 0.127755 0.197846 0.867432
v 0.266133 0.020672 0.471999
v -0.534952 0.516745 0.356590
v -0.319842 0.536311 0.536556
v -0.567417 0.438647 0.839662
v 0.126620 0.380460 0.866557
v 0.126620 0.377211 0.866557
v -0.532407 0.240667 0.353407
v -0.532421 0.402150 0.353396
v -0.362472 0.493399 0.136295
v -0.535097 0.227617 0.356826
v -0.079898 -0.145393 0.708226
v 0.137214 0.198752 0.222506
v -0.072855 -0.013837 0.862278
v -0.539480 0.517567 0.365677
v -0.276095 -0.102857 0.151937
v -0.426056 0.164575 0.240656
v -0.373640 0.164435 0.175755
v -0.378539 0.191366 0.171907
v -0.506687 0.191366 0.334351
v 0.096662 -0.146074 0.479042
v -0.566567 0.308215 0.840363
v -0.674091 0.437997 0.696975
v -0.463655 -0.146217 0.407413
v -0.520477 0.191366 0.351927
v -0.515524 0.164435 0.355819
v -0.285890 -0.145957 0.180343
v -0.597570 0.037281 0.509985
v -0.567869 0.311495 0.838627
v -0.568243 0.437223 0.838550
v -0.674544 0.253982 0.695387
v -0.568155 0.437223 0.838668
v -0.641180 0.311495 0.740320
v -0.673375 0.437223 0.697930
v -0.543359 0.437223 0.835154
v -0.543359 0.311495 0.835154
v -0.673197 0.311495 0.697496
v -0.658628 0.311495 0.674845
v -0.658628 0.437223 0.674845
v -0.302696 0.437208 0.654111
v -0.302696 0.311495 0.654111
v -0.423249 0.311495 0.493802
v -0.423249 0.437208 0.493802
v -0.510393 0.164435 0.359849
v -0.505160 0.137504 0.363937
v -0.364073 0.137504 0.183248
v -0.369306 0.164435 0.179160
v -0.442446 0.164435 0.412922
v -0.442490 0.137504 0.412888
v -0.301403 0.137504 0.232199
v -0.301360 0.164435 0.232233
v -0.442498 0.191366 0.412999
v -0.374540 0.191366 0.175072
v -0.301411 0.191366 0.232310
v -0.515626 0.191366 0.355761
vt 0.617965 0.503720
vt 0.651229 0.569256
vt 0.649670 0.571538
vt 0.615338 0.502872
vt 0.739739 0.439723
vt 0.723598 0.463348
vt 0.726662 0.474847
vt 0.316017 0.831426
vt 0.316035 0.832557
vt 0.317539 0.894981
vt 0.026042 0.884763
vt 0.025131 0.828555
vt 0.289591 0.824336
vt 0.311090 0.830092
vt 0.267930 0.261041
vt 0.245053 0.266551
vt 0.246139 0.296006
vt 0.222133 0.322500
vt 0.228507 0.266092
vt 0.270556 0.260506
vt 0.269916 0.262547
vt 0.023174 0.981574
vt 0.023339 0.976501
vt 0.313842 0.990448
vt 0.774490 0.508360
vt 0.752179 0.519655
vt 0.836100 0.242897
vt 0.889901 0.030256
vt 0.969055 0.143988
vt 0.969055 0.358932
vt 0.199554 0.522775
vt 0.233953 0.498464
vt 0.275809 0.605078
vt 0.273635 0.602747
vt 0.268674 0.589843
vt 0.263896 0.591739
vt 0.525763 0.428855
vt 0.537174 0.356219
vt 0.637035 0.298785
vt 0.717473 0.350741
vt 0.842705 0.300315
vt 0.869957 0.319890
vt 0.801621 0.484210
vt 0.657648 0.099430
vt 0.784279 0.044440
vt 0.889565 0.028173
vt 0.803211 0.247931
vt 0.159945 0.466467
vt 0.160088 0.465429
vt 0.212235 0.444588
vt 0.214239 0.444226
vt 0.235065 0.495983
vt 0.623455 0.578462
vt 0.469575 0.749675
vt 0.464060 0.749719
vt 0.347650 0.634654
vt 0.274697 0.605511
vt 0.341827 0.582049
vt 0.286895 0.434734
vt 0.308670 0.462941
vt 0.651831 0.570444
vt 0.376684 0.063854
vt 0.462689 0.012494
vt 0.542018 0.114475
vt 0.436320 0.055965
vt 0.460597 0.047540
vt 0.459449 0.047929
vt 0.395358 0.069693
vt 0.636869 0.103380
vt 0.541650 0.134558
vt 0.445161 0.189056
vt 0.357230 0.155845
vt 0.387217 0.073430
vt 0.390630 0.081852
vt 0.307440 0.395950
vt 0.348333 0.318160
vt 0.407458 0.260969
vt 0.332237 0.450414
vt 0.281550 0.301571
vt 0.262870 0.407094
vt 0.222523 0.325013
vt 0.308606 0.462467
vt 0.308961 0.462653
vt 0.329231 0.448102
vt 0.309590 0.420603
vt 0.307958 0.421564
vt 0.288603 0.434260
vt 0.554425 0.936455
vt 0.500893 0.952418
vt 0.497737 0.941746
vt 0.549933 0.926621
vt 0.631744 0.930017
vt 0.608293 0.932148
vt 0.633765 0.918970
vt 0.762318 0.952418
vt 0.752502 0.950214
vt 0.683587 0.933665
vt 0.683249 0.922895
vt 0.770144 0.943359
vt 0.476221 0.802329
vt 0.537390 0.794409
vt 0.633315 0.790417
vt 0.692013 0.792115
vt 0.788165 0.801916
vt 0.630813 0.730299
vt 0.534888 0.734292
vt 0.964564 0.932706
vt 0.951596 0.932706
vt 0.951596 0.825524
vt 0.964563 0.825524
vt 0.901823 0.932711
vt 0.914414 0.932706
vt 0.914518 0.969885
vt 0.901939 0.973025
vt 0.969572 0.012494
vt 0.971504 0.012494
vt 0.971903 0.041742
vt 0.971632 0.092874
vt 0.969344 0.092874
vt 0.901800 0.785239
vt 0.914401 0.788338
vt 0.914414 0.825524
vt 0.901828 0.825539
vt 0.889358 0.976166
vt 0.889231 0.932748
vt 0.338875 0.038409
vt 0.338875 0.041843
vt 0.323917 0.045532
vt 0.323917 0.041907
vt 0.889241 0.825565
vt 0.889206 0.782144
vt 0.845811 0.932701
vt 0.845820 0.825519
vt 0.323459 0.151466
vt 0.320410 0.151466
vt 0.318865 0.140340
vt 0.320283 0.038409
vt 0.322796 0.038447
vt 0.314270 0.720823
vt 0.288151 0.728810
vt 0.023926 0.733020
vt 0.023174 0.676768
vt 0.313310 0.657080
vt 0.313394 0.667189
vt 0.277875 0.298543
vt 0.255411 0.296435
vt 0.289523 0.815390
vt 0.024728 0.791304
vt 0.236249 0.633099
vt 0.223165 0.624434
vt 0.211792 0.628863
vt 0.355376 0.041391
vt 0.340023 0.041391
vt 0.339332 0.038409
vt 0.354737 0.038631
vn 0.791400 0.008000 0.611300
vn 0.614400 0.000900 -0.789000
vn -0.787500 -0.003000 -0.616300
vn 0.040800 0.998700 0.031000
vn 0.788700 0.000000 0.614700
vn 0.418400 0.801700 -0.426900
vn 0.211400 0.961700 0.174700
vn 0.624400 -0.611500 0.486000
vn 0.888700 0.000700 -0.458500
vn 0.168200 -0.001500 -0.985800
vn -0.004400 0.994400 -0.105800
vn 0.062800 0.933900 0.351900
vn 0.217700 0.960900 0.170900
vn -0.044800 0.000800 0.999000
vn -0.201100 0.968100 0.149300
vn 0.788700 0.000000 0.614800
vn -0.762500 -0.224200 -0.606900
vn 0.513900 -0.550200 -0.658200
vn -0.767400 -0.228300 -0.599100
vn 0.000100 -1.000000 0.001000
vn -0.459600 -0.665000 0.588600
vn -0.925000 -0.000400 -0.380000
vn -0.801600 -0.002000 0.597800
vn -0.800900 -0.003200 0.598800
vn -0.140300 -0.000000 -0.990100
vn 0.000000 1.000000 0.000000
vn 0.000000 -1.000000 0.000000
vn -0.601200 -0.000000 -0.799100
vn 0.841900 -0.000300 0.539600
vn -0.799200 0.000000 0.601000
vn 0.609700 0.000000 0.792700
vn 0.765300 0.239400 0.597500
vn 0.615600 0.000000 -0.788100
vn 0.008500 0.999900 0.006700
vn -0.615600 0.000000 0.788100
vn -0.788200 0.002000 -0.615400
vn 0.616000 0.001800 -0.787800
vn 0.618900 0.000700 -0.785500
vn -0.616000 -0.001800 0.787800
vn -0.788200 0.000300 -0.615400
vn -0.614400 -0.000900 0.789000
vn -0.785700 -0.000100 -0.618600
vn 0.000700 -1.000000 -0.000500
vn -0.619100 -0.000800 0.785300
usemtl casa
s off
f 21/1/1 27/2/1 17/3/1 13/4/1 5/5/1 2/6/1 1/7/1
f 26/8/2 27/9/2 21/10/2 28/11/2 29/12/2 19/13/2 18/14/2
f 4/15/3 10/16/3 20/17/3 23/18/3 30/19/3 11/20/3 12/21/3
f 4/22/4 12/23/4 28/11/4 21/10/4 1/24/4
f 2/6/5 5/5/5 9/25/5 6/26/5
f 14/27/6 15/28/6 7/29/6 9/30/6
f 7/31/7 16/32/7 17/33/7 18/34/7 19/35/7 8/36/7
f 34/37/8 32/38/8 41/39/8 22/40/8 5/5/8 13/4/8
f 5/5/9 22/40/9 33/41/9 14/42/9 9/43/9
f 36/44/10 11/45/10 30/46/10 15/28/10 14/27/10 33/47/10
f 16/32/11 7/31/11 15/48/11 30/49/11 23/50/11 35/51/11 24/52/11
f 17/53/12 16/54/12 24/55/12 25/56/12
f 18/34/13 17/33/13 26/57/13
f 17/53/14 25/56/14 42/58/14 34/37/14 13/4/14
f 24/52/15 35/51/15 43/59/15 25/60/15
f 17/3/16 27/2/16 26/61/16
f 31/62/17 11/63/17 36/64/17 37/65/17 38/66/17 39/67/17 40/68/17
f 22/40/18 41/39/18 47/69/18 36/44/18 33/47/18
f 37/65/19 36/64/19 47/70/19 44/71/19 48/72/19 31/62/19 40/68/19 45/73/19 46/74/19
f 41/39/20 32/38/20 44/71/20 47/70/20
f 51/75/21 48/76/21 44/77/21 32/38/21 34/37/21 42/78/21
f 23/18/22 31/79/22 48/76/22 51/75/22 43/80/22 35/81/22
f 42/78/23 25/60/23 50/82/23 52/83/23 49/84/23 53/85/23 51/75/23
f 25/60/24 43/59/24 51/75/24 53/85/24 57/86/24 54/87/24 50/82/24
f 49/88/25 52/89/25 55/90/25 56/91/25
f 57/92/26 53/93/26 49/88/26 56/91/26 58/94/26
f 52/95/27 50/96/27 54/97/27 59/98/27 55/99/27
f 60/100/28 61/101/28 56/91/28 55/90/28
f 54/97/29 57/92/29 58/94/29 59/98/29
f 58/94/26 56/91/26 61/101/26 62/102/26
f 55/99/27 59/98/27 63/103/27 60/104/27
f 63/105/30 62/102/30 61/101/30 60/106/30
f 59/98/31 58/94/31 62/102/31 63/103/31
f 64/107/32 65/108/32 66/109/32 67/110/32
f 68/111/33 69/112/33 65/113/33 64/114/33
f 67/115/34 38/116/34 37/117/34 46/118/34 64/119/34
f 67/120/35 66/121/35 70/122/35 71/123/35
f 65/108/26 69/112/26 70/122/26 66/109/26
f 71/123/36 70/122/36 69/112/36 68/111/36
f 68/111/37 64/114/37 75/124/37 72/125/37
f 45/126/38 75/127/38 64/128/38 46/129/38
f 67/120/39 71/123/39 74/130/39 73/131/39
f 74/130/40 71/123/40 68/111/40 72/125/40
f 72/125/27 75/132/27 73/133/27 74/130/27
f 75/134/27 45/135/27 40/136/27 39/137/27 73/138/27
f 6/139/41 3/140/41 10/141/41 4/142/41 1/143/41 2/144/41
f 28/145/42 12/21/42 11/20/42 31/79/42 23/18/42 20/17/42 29/146/42
f 8/147/43 19/13/43 29/12/43 20/148/43 10/141/43 3/140/43
f 7/31/13 8/36/13 3/149/13 6/150/13 9/151/13
f 39/152/44 38/153/44 67/154/44 73/155/44
o bar_Cube.003
v -0.505160 0.137504 0.363937
v -0.515626 0.191366 0.355761
v -0.364073 0.137504 0.183248
v -0.374540 0.191366 0.175072
v -0.442490 0.137504 0.412888
v -0.442498 0.191366 0.412999
v -0.301403 0.137504 0.232199
v -0.301411 0.191366 0.232310
vt 0.159898 0.435453
vt 0.840102 0.435453
vt 0.840102 0.600046
vt 0.159898 0.600046
vt 0.999908 0.560638
vt 0.999909 0.836194
vt 0.840102 0.836009
vt 0.839828 0.159898
vt 0.159624 0.159898
vt 0.159898 0.000091
vt 0.840102 0.000092
vt 0.159898 0.836009
vt 0.000091 0.836194
vt 0.000092 0.560639
vn -0.765300 -0.239400 -0.597500
vn 0.616000 0.000900 -0.787800
vn 0.788200 -0.001200 0.615400
vn 0.000000 -1.000000 0.000000
vn 0.000000 1.000000 -0.000000
vn -0.616000 -0.000900 0.787800
usemtl bar
s off
f 77/156/45 79/157/45 78/158/45 76/159/45
f 79/160/46 83/161/46 82/162/46 78/158/46
f 83/163/47 81/164/47 80/165/47 82/166/47
f 76/159/48 78/158/48 82/162/48 80/167/48
f 81/164/49 83/163/49 79/157/49 77/156/49
f 81/168/50 77/169/50 76/159/50 80/167/50
o sala_concertos_2_Cube.001
v -0.423249 0.311495 0.493802
v -0.423249 0.437208 0.493802
v -0.302696 0.311495 0.654111
v -0.302696 0.437208 0.654111
v -0.663912 0.437223 0.674845
v -0.663912 0.311495 0.674845
v -0.543359 0.437223 0.835154
v -0.543359 0.311495 0.835154
v -0.673804 0.311495 0.698976
v -0.568697 0.437223 0.838744
v -0.673804 0.437223 0.698976
v -0.568697 0.311495 0.838744
vt 0.807296 0.654103
vt 0.807320 0.192696
vt 0.999906 0.192696
vt 0.999906 0.654103
vt 0.500023 0.192680
vt 0.500033 0.000094
vt 0.807329 0.000109
vt 0.000094 0.654038
vt 0.000140 0.192630
vt 0.307437 0.192661
vt 0.307390 0.654069
vt 0.500000 0.654088
vt 0.518939 0.688422
vt 0.786861 0.688435
vt 0.020524 0.688373
vt 0.288446 0.688400
vt 0.807296 0.694057
vt 0.999906 0.694057
vt 0.499996 0.693299
vt 0.307386 0.693279
vt 0.786851 0.881045
vt 0.518929 0.881031
vn -0.601200 0.000000 -0.799100
vn 0.799200 0.000000 -0.601000
vn 0.000000 -1.000000 0.000000
vn 0.000000 1.000000 -0.000000
vn 0.601200 0.000000 0.799100
vn -0.925300 0.000000 -0.379300
vn 0.140300 0.000000 0.990100
vn -0.799200 0.000000 0.601000
usemtl sala_concertos_2
s off
f 88/170/51 85/171/51 84/172/51 89/173/51
f 85/171/52 87/174/52 86/175/52 84/176/52
f 89/177/53 84/178/53 86/179/53 91/180/53
f 90/181/54 87/174/54 85/171/54 88/170/54
f 93/182/54 90/181/54 88/170/54 94/183/54
f 92/184/53 89/177/53 91/180/53 95/185/53
f 87/174/55 90/181/55 91/180/55 86/179/55
f 94/186/56 88/170/56 89/173/56 92/187/56
f 90/181/57 93/188/57 95/189/57 91/180/57
f 92/190/58 95/191/58 93/182/58 94/183/58
o suggia_Cube
v -0.533145 0.232368 0.352832
v -0.533145 0.402150 0.352832
v -0.363351 0.232368 0.137225
v -0.363351 0.402150 0.137225
v 0.127962 0.197480 0.867593
v 0.295592 0.197480 0.650316
v 0.127962 0.381085 0.867593
v 0.068221 0.402042 0.821486
v 0.235851 0.394323 0.604209
v 0.295592 0.381085 0.650316
vt 0.150755 0.373197
vt 0.150735 0.616723
vt 0.000087 0.616711
vt 0.000107 0.373185
vt 0.836207 0.375613
vt 0.769808 0.388914
vt 0.155941 0.224787
vt 0.842601 0.225428
vt 0.778062 0.604452
vt 0.841650 0.612175
vt 0.847988 0.763897
vt 0.156587 0.763897
vt 0.157425 0.000087
vt 0.841849 0.000736
vt 0.994470 0.371972
vt 0.999913 0.608534
vn -0.785600 0.000000 -0.618700
vn -0.614400 -0.000900 0.789000
vn 0.614400 0.000900 -0.789000
vn -0.032900 -0.999100 -0.025600
vn 0.791800 0.000000 0.610800
vn 0.183300 0.975200 0.124100
vn 0.012800 0.999900 -0.007900
usemtl suggia
s off
f 97/192/59 99/193/59 98/194/59 96/195/59
f 102/196/60 103/197/60 97/192/60 96/198/60 100/199/60
f 99/193/61 104/200/61 105/201/61 101/202/61 98/203/61
f 96/198/62 98/204/62 101/205/62 100/199/62
f 105/201/63 102/196/63 100/206/63 101/207/63
f 104/200/64 103/197/64 102/196/64 105/201/64
f 103/197/65 104/200/65 99/193/65 97/192/65
