# Blender v2.76 (sub 0) OBJ File: 'casa_da_musica_imported.blend'
# www.blender.org
mtllib bar.mtl
o bar_Cube.003
v -0.698334 0.094339 -0.215265
v -0.719271 0.202064 -0.231616
v -0.416112 0.094339 -0.576643
v -0.437048 0.202064 -0.592994
v -0.572972 0.094339 -0.117362
v -0.572988 0.202064 -0.117140
v -0.290750 0.094339 -0.478741
v -0.290765 0.202064 -0.478519
vt 0.159898 0.435453
vt 0.840102 0.435453
vt 0.840102 0.600046
vt 0.159898 0.600046
vt 0.999908 0.560638
vt 0.999909 0.836194
vt 0.840102 0.836009
vt 0.839828 0.159898
vt 0.159624 0.159898
vt 0.159898 0.000091
vt 0.840102 0.000092
vt 0.159898 0.836009
vt 0.000091 0.836194
vt 0.000092 0.560639
vn -0.765200 -0.239400 -0.597600
vn 0.615900 0.000900 -0.787800
vn 0.788100 -0.001200 0.615500
vn 0.000000 -1.000000 0.000000
vn 0.000000 1.000000 -0.000000
vn -0.615900 -0.000900 0.787800
usemtl bar
s off
f 2/1/1 4/2/1 3/3/1 1/4/1
f 4/5/2 8/6/2 7/7/2 3/3/2
f 8/8/3 6/9/3 5/10/3 7/11/3
f 1/4/4 3/3/4 7/7/4 5/12/4
f 6/9/5 8/8/5 4/2/5 2/1/5
f 6/13/6 2/14/6 1/4/6 5/12/6
