# Blender v2.76 (sub 0) OBJ File: 'casa_da_musica_imported.blend'
# www.blender.org
mtllib bar_experimentar_3.mtl
o bar_Cube.003
v -0.698334 0.094339 -0.215265
v -0.719271 0.202064 -0.231616
v -0.416112 0.094339 -0.576643
v -0.437048 0.202064 -0.592994
v -0.572972 0.094339 -0.117362
v -0.572988 0.202064 -0.117140
v -0.290750 0.094339 -0.478741
v -0.290765 0.202064 -0.478519
vt 0.840102 0.435453
vt 0.840102 0.600046
vt 0.159898 0.600046
vt 0.999909 0.836194
vt 0.840102 0.836009
vt 0.839828 0.159898
vt 0.159624 0.159898
vt 0.159898 0.000091
vt 0.159898 0.836009
vt 0.159898 0.435453
vt 0.000091 0.836194
vt 0.000092 0.560639
vt 0.999908 0.560638
vt 0.840102 0.000092
vn -0.765200 -0.239400 -0.597600
vn 0.615500 0.001700 -0.788100
vn 0.788100 -0.001200 0.615500
vn 0.000000 -1.000000 -0.000000
vn 0.000000 1.000000 0.000000
vn -0.616300 -0.000200 0.787500
vn 0.616300 0.000200 -0.787500
vn -0.615500 -0.001700 0.788100
usemtl bar
s off
f 4/1/1 3/2/1 1/3/1
f 8/4/2 7/5/2 3/2/2
f 8/6/3 6/7/3 5/8/3
f 3/2/4 7/5/4 5/9/4
f 8/6/5 4/1/5 2/10/5
f 6/11/6 2/12/6 1/3/6
f 2/10/1 4/1/1 1/3/1
f 4/13/7 8/4/7 3/2/7
f 7/14/3 8/6/3 5/8/3
f 1/3/4 3/2/4 5/9/4
f 6/7/5 8/6/5 2/10/5
f 5/9/8 6/11/8 1/3/8
