# Blender v2.76 (sub 0) OBJ File: 'casa_da_musica_imported.blend'
# www.blender.org
mtllib sala_concertos_2_experimentar_3.mtl
o sala_concertos_2_Cube.001
v -0.534485 0.442322 0.044466
v -0.534485 0.693748 0.044466
v -0.293337 0.442322 0.365084
v -0.293337 0.693748 0.365084
v -1.015895 0.693779 0.406551
v -1.015895 0.442322 0.406551
v -0.774747 0.693779 0.727169
v -0.774747 0.442322 0.727169
v -1.035681 0.442322 0.454813
v -0.825432 0.693779 0.734350
v -1.035681 0.693779 0.454813
v -0.825432 0.442322 0.734350
vt 0.807320 0.192696
vt 0.999906 0.192696
vt 0.999906 0.654103
vt 0.500023 0.192680
vt 0.500033 0.000094
vt 0.807329 0.000109
vt 0.000140 0.192630
vt 0.307437 0.192661
vt 0.307390 0.654069
vt 0.500000 0.654088
vt 0.807296 0.654103
vt 0.786861 0.688435
vt 0.020524 0.688373
vt 0.000094 0.654038
vt 0.999906 0.694057
vt 0.499996 0.693299
vt 0.307386 0.693279
vt 0.518929 0.881031
vt 0.518939 0.688422
vt 0.288446 0.688400
vt 0.807296 0.694057
vt 0.786851 0.881045
vn -0.601100 0.000000 -0.799200
vn 0.799200 0.000000 -0.601100
vn 0.000000 -1.000000 0.000000
vn 0.000000 1.000000 -0.000000
vn 0.601100 0.000000 0.799200
vn -0.925300 0.000000 -0.379300
vn 0.140300 0.000000 0.990100
vn -0.799200 0.000000 0.601100
usemtl sala_concertos_2
s off
f 2/1/1 1/2/1 6/3/1
f 4/4/2 3/5/2 1/6/2
f 1/7/3 3/8/3 8/9/3
f 7/10/4 4/4/4 2/1/4
f 7/10/4 5/11/4 11/12/4
f 9/13/3 6/14/3 8/9/3
f 4/4/5 7/10/5 8/9/5
f 5/11/6 6/3/6 9/15/6
f 10/16/7 12/17/7 8/9/7
f 12/18/8 10/19/8 11/12/8
f 5/11/1 2/1/1 6/3/1
f 2/1/2 4/4/2 1/6/2
f 6/14/3 1/7/3 8/9/3
f 5/11/4 7/10/4 2/1/4
f 10/19/4 7/10/4 11/12/4
f 12/20/3 9/13/3 8/9/3
f 3/8/5 4/4/5 8/9/5
f 11/21/6 5/11/6 9/15/6
f 7/10/7 10/16/7 8/9/7
f 9/22/8 12/18/8 11/12/8
